<?xml version="1.0" standalone="no"?>
<!DOCTYPE svg PUBLIC "-//W3C//DTD SVG 20010904//EN"
 "http://www.w3.org/TR/2001/REC-SVG-20010904/DTD/svg10.dtd">
<svg version="1.0" xmlns="http://www.w3.org/2000/svg"
 width="800.000000pt" height="800.000000pt" viewBox="0 0 800.000000 800.000000"
 preserveAspectRatio="xMidYMid meet">
<metadata>
Created by potrace 1.11, written by Peter Selinger 2001-2013
</metadata>
<g transform="translate(0.000000,800.000000) scale(0.100000,-0.100000)"
fill="#000000" stroke="none">
<path d="M3705 7826 c-154 -89 -419 -242 -590 -340 -170 -98 -322 -187 -337
-197 -15 -10 -29 -19 -32 -19 -3 0 -43 -22 -88 -49 -46 -26 -207 -119 -358
-206 -151 -87 -345 -199 -430 -248 -85 -49 -171 -99 -190 -110 -19 -10 -75
-43 -125 -72 -49 -29 -113 -66 -140 -82 -60 -33 -263 -150 -308 -177 -18 -10
-142 -82 -277 -159 -135 -77 -254 -146 -265 -154 -16 -11 559 -13 3435 -13
l3455 0 -35 22 c-19 11 -50 29 -67 39 -58 33 -93 53 -423 244 -179 103 -350
201 -380 218 -30 16 -59 33 -65 37 -5 5 -66 40 -135 80 -69 40 -141 82 -160
93 -19 11 -53 30 -75 42 -22 13 -123 71 -225 130 -102 59 -210 121 -240 138
-30 16 -67 38 -82 49 -14 10 -28 18 -31 18 -3 0 -52 28 -109 62 -56 33 -128
75 -158 91 -30 17 -118 67 -195 112 -77 45 -160 93 -185 107 -25 14 -157 91
-295 170 -532 308 -585 338 -597 338 -7 -1 -139 -74 -293 -164z"/>
<path d="M550 3607 l0 -1574 27 -14 c16 -7 39 -21 53 -30 14 -9 221 -129 460
-267 239 -137 451 -259 470 -270 19 -11 89 -51 155 -89 66 -38 228 -132 360
-208 132 -76 337 -194 455 -263 118 -69 233 -135 255 -147 83 -46 621 -357
655 -379 19 -12 43 -25 53 -29 16 -6 17 113 17 2418 l0 2425 -1480 0 -1480 0
0 -1573z"/>
<path d="M4490 2754 c0 -1334 4 -2424 8 -2422 4 2 163 93 353 202 189 110 457
264 594 344 138 79 306 177 375 217 69 40 141 81 160 92 50 29 305 176 785
453 231 134 429 248 440 254 11 6 71 40 133 76 l112 64 0 1573 0 1573 -1480 0
-1480 0 0 -2426z"/>
</g>
</svg>
